<?xml version="1.0" encoding="UTF-8"?>
<svg xmlns="http://www.w3.org/2000/svg" xmlns:xlink="http://www.w3.org/1999/xlink" width="3128px" height="2088px" viewBox="0 0 3128 2088" version="1.1">
<g id="surface1">
<path style=" stroke:none;fill-rule:nonzero;fill:rgb(42.352941%,38.823529%,100%);fill-opacity:1;" d="M 0 906.183594 C 0 637.519531 217.792969 0 486.453125 0 C 755.117188 0 972.910156 637.519531 972.910156 906.183594 C 972.910156 1174.84375 755.117188 1392.636719 486.453125 1392.636719 C 217.792969 1392.636719 0 1174.84375 0 906.183594 Z M 0 906.183594 "/>
<path style=" stroke:none;fill-rule:nonzero;fill:rgb(24.705882%,23.921569%,33.72549%);fill-opacity:1;" d="M 486.453125 2089.671875 C 484.246094 2089.671875 482.453125 2087.882812 482.453125 2085.671875 L 482.453125 408.535156 C 482.453125 406.324219 484.246094 404.535156 486.453125 404.535156 C 488.664062 404.535156 490.453125 406.324219 490.453125 408.535156 L 490.453125 2085.671875 C 490.453125 2087.882812 488.664062 2089.671875 486.453125 2089.671875 Z M 486.453125 2089.671875 "/>
<path style=" stroke:none;fill-rule:nonzero;fill:rgb(24.705882%,23.921569%,33.72549%);fill-opacity:1;" d="M 486.453125 732.320312 C 485.394531 732.320312 484.375 731.898438 483.625 731.144531 L 291.089844 538.609375 C 290.066406 537.601562 289.664062 536.121094 290.03125 534.734375 C 290.402344 533.347656 291.484375 532.265625 292.871094 531.898438 C 294.257812 531.527344 295.738281 531.933594 296.746094 532.953125 L 489.285156 725.488281 C 490.425781 726.632812 490.769531 728.355469 490.148438 729.847656 C 489.53125 731.34375 488.074219 732.316406 486.453125 732.316406 Z M 486.453125 732.320312 "/>
<path style=" stroke:none;fill-rule:nonzero;fill:rgb(24.705882%,23.921569%,33.72549%);fill-opacity:1;" d="M 486.453125 1065.636719 C 484.835938 1065.636719 483.378906 1064.664062 482.757812 1063.167969 C 482.140625 1061.675781 482.484375 1059.953125 483.625 1058.8125 L 806.066406 736.371094 C 807.074219 735.347656 808.550781 734.945312 809.941406 735.3125 C 811.328125 735.683594 812.410156 736.765625 812.777344 738.152344 C 813.148438 739.539062 812.746094 741.015625 811.722656 742.027344 L 489.285156 1064.46875 C 488.535156 1065.21875 487.515625 1065.640625 486.453125 1065.636719 Z M 486.453125 1065.636719 "/>
<path style=" stroke:none;fill-rule:nonzero;fill:rgb(90.196078%,90.196078%,90.196078%);fill-opacity:1;" d="M 926.914062 1233.164062 C 926.914062 1040.109375 1083.519531 582 1276.707031 582 C 1469.890625 582 1626.5 1040.109375 1626.5 1233.164062 C 1626.367188 1426.257812 1469.800781 1582.71875 1276.707031 1582.71875 C 1083.613281 1582.71875 927.042969 1426.257812 926.914062 1233.164062 Z M 926.914062 1233.164062 "/>
<path style=" stroke:none;fill-rule:nonzero;fill:rgb(24.705882%,23.921569%,33.72549%);fill-opacity:1;" d="M 1276.707031 2083.59375 C 1275.117188 2083.59375 1273.832031 2082.308594 1273.832031 2080.71875 L 1273.832031 875.566406 C 1273.835938 873.980469 1275.121094 872.699219 1276.707031 872.699219 C 1278.289062 872.699219 1279.578125 873.980469 1279.582031 875.566406 L 1279.582031 2080.71875 C 1279.582031 2082.308594 1278.292969 2083.59375 1276.707031 2083.59375 Z M 1276.707031 2083.59375 "/>
<path style=" stroke:none;fill-rule:nonzero;fill:rgb(24.705882%,23.921569%,33.72549%);fill-opacity:1;" d="M 1276.707031 1108.230469 C 1275.945312 1108.230469 1275.210938 1107.925781 1274.671875 1107.386719 L 1136.226562 969.035156 C 1135.101562 967.910156 1135.105469 966.089844 1136.226562 964.96875 C 1137.351562 963.84375 1139.171875 963.84375 1140.292969 964.96875 L 1278.742188 1103.320312 C 1279.5625 1104.144531 1279.808594 1105.382812 1279.363281 1106.457031 C 1278.917969 1107.527344 1277.871094 1108.230469 1276.707031 1108.230469 Z M 1276.707031 1108.230469 "/>
<path style=" stroke:none;fill-rule:nonzero;fill:rgb(24.705882%,23.921569%,33.72549%);fill-opacity:1;" d="M 1276.707031 1347.746094 C 1275.542969 1347.746094 1274.496094 1347.046875 1274.050781 1345.972656 C 1273.605469 1344.898438 1273.851562 1343.660156 1274.671875 1342.839844 L 1506.527344 1111.140625 C 1507.652344 1110.015625 1509.472656 1110.015625 1510.59375 1111.136719 C 1511.71875 1112.261719 1511.71875 1114.082031 1510.597656 1115.203125 L 1278.742188 1346.902344 C 1278.203125 1347.445312 1277.46875 1347.746094 1276.707031 1347.746094 Z M 1276.707031 1347.746094 "/>
<path style=" stroke:none;fill-rule:nonzero;fill:rgb(42.352941%,38.823529%,100%);fill-opacity:1;" d="M 1297.585938 2060.546875 C 1287.4375 2060.535156 1278.070312 2055.09375 1273.03125 2046.285156 C 1267.992188 2037.480469 1268.050781 2026.648438 1273.183594 2017.894531 L 1273.183594 2017.890625 L 1312.839844 1950.179688 L 1361.742188 1978.824219 L 1322.085938 2046.539062 C 1316.988281 2055.226562 1307.660156 2060.5625 1297.585938 2060.546875 Z M 1297.585938 2060.546875 "/>
<path style=" stroke:none;fill-rule:nonzero;fill:rgb(42.352941%,38.823529%,100%);fill-opacity:1;" d="M 1488.089844 1870.917969 C 1488.089844 1890.179688 1472.476562 1905.792969 1453.214844 1905.792969 C 1433.953125 1905.792969 1418.339844 1890.179688 1418.339844 1870.917969 C 1418.339844 1851.65625 1433.953125 1836.042969 1453.214844 1836.042969 C 1472.476562 1836.042969 1488.089844 1851.65625 1488.089844 1870.917969 Z M 1488.089844 1870.917969 "/>
<path style=" stroke:none;fill-rule:nonzero;fill:rgb(42.352941%,38.823529%,100%);fill-opacity:1;" d="M 1144.140625 2060.546875 C 1133.992188 2060.535156 1124.625 2055.09375 1119.585938 2046.285156 C 1114.546875 2037.476562 1114.605469 2026.644531 1119.738281 2017.890625 L 1159.394531 1950.179688 L 1208.296875 1978.824219 L 1168.636719 2046.539062 C 1163.539062 2055.226562 1154.214844 2060.558594 1144.140625 2060.546875 Z M 1144.140625 2060.546875 "/>
<path style=" stroke:none;fill-rule:nonzero;fill:rgb(24.705882%,23.921569%,33.72549%);fill-opacity:1;" d="M 1372.476562 2015.289062 L 1196.75 2015.289062 C 1146.957031 2015.234375 1106.605469 1974.878906 1106.546875 1925.085938 L 1106.546875 1898.390625 C 1106.566406 1881.097656 1120.582031 1867.085938 1137.871094 1867.066406 L 1372.476562 1867.066406 C 1413.40625 1867.066406 1446.589844 1900.246094 1446.589844 1941.175781 C 1446.589844 1982.109375 1413.40625 2015.289062 1372.476562 2015.289062 Z M 1372.476562 2015.289062 "/>
<path style=" stroke:none;fill-rule:nonzero;fill:rgb(24.705882%,23.921569%,33.72549%);fill-opacity:1;" d="M 1364.148438 2083.605469 C 1348.507812 2083.589844 1335.832031 2070.910156 1335.8125 2055.269531 L 1335.8125 1976.796875 L 1392.488281 1976.796875 L 1392.488281 2055.269531 C 1392.46875 2070.910156 1379.792969 2083.589844 1364.148438 2083.605469 Z M 1364.148438 2083.605469 "/>
<path style=" stroke:none;fill-rule:nonzero;fill:rgb(24.705882%,23.921569%,33.72549%);fill-opacity:1;" d="M 1199.699219 2083.605469 C 1184.058594 2083.589844 1171.378906 2070.910156 1171.363281 2055.269531 L 1171.363281 1976.796875 L 1228.035156 1976.796875 L 1228.035156 2055.269531 C 1228.019531 2070.910156 1215.34375 2083.589844 1199.699219 2083.605469 Z M 1199.699219 2083.605469 "/>
<path style=" stroke:none;fill-rule:nonzero;fill:rgb(42.352941%,38.823529%,100%);fill-opacity:1;" d="M 1054.78125 1816.183594 L 1000.398438 1859.859375 L 943.074219 1788.484375 C 931.074219 1773.460938 933.492188 1751.5625 948.484375 1739.523438 C 963.472656 1727.484375 985.378906 1729.847656 997.457031 1744.804688 Z M 1054.78125 1816.183594 "/>
<path style=" stroke:none;fill-rule:nonzero;fill:rgb(24.705882%,23.921569%,33.72549%);fill-opacity:1;" d="M 1131.6875 1920.769531 L 1041.742188 1993.007812 C 1030.910156 2001.691406 1015.09375 1999.964844 1006.386719 1989.152344 L 968.550781 1942.039062 C 940.90625 1907.539062 946.402344 1857.171875 980.839844 1829.449219 L 995.191406 1817.921875 C 1024.125 1794.738281 1066.371094 1799.347656 1089.621094 1828.230469 L 1135.546875 1885.414062 C 1144.230469 1896.25 1142.503906 1912.066406 1131.6875 1920.769531 Z M 1131.6875 1920.769531 "/>
<path style=" stroke:none;fill-rule:nonzero;fill:rgb(24.705882%,23.921569%,33.72549%);fill-opacity:1;" d="M 1054.78125 1816.183594 L 1017.394531 1846.210938 L 953.242188 1766.335938 C 944.949219 1756.011719 946.597656 1740.917969 956.921875 1732.628906 C 967.246094 1724.335938 982.339844 1725.984375 990.632812 1736.308594 Z M 1054.78125 1816.183594 "/>
<path style=" stroke:none;fill-rule:nonzero;fill:rgb(24.705882%,23.921569%,33.72549%);fill-opacity:1;" d="M 1126.210938 1924.207031 L 1027.640625 2003.371094 C 1012.621094 2015.375 990.71875 2012.957031 978.675781 1997.964844 C 966.636719 1982.972656 969 1961.066406 983.964844 1948.988281 L 1082.535156 1869.824219 Z M 1126.210938 1924.207031 "/>
<path style=" stroke:none;fill-rule:nonzero;fill:rgb(42.352941%,38.823529%,100%);fill-opacity:1;" d="M 987.136719 1990.363281 C 982.046875 1984.03125 975.070312 1981.183594 971.550781 1984.011719 C 968.03125 1986.839844 969.300781 1994.265625 974.390625 2000.601562 C 979.480469 2006.9375 986.457031 2009.78125 989.976562 2006.953125 C 993.496094 2004.128906 992.226562 1996.699219 987.136719 1990.363281 Z M 987.136719 1990.363281 "/>
<path style=" stroke:none;fill-rule:nonzero;fill:rgb(80%,80%,80%);fill-opacity:1;" d="M 710.269531 2037.355469 C 710.269531 2060.550781 691.464844 2079.355469 668.269531 2079.355469 C 645.074219 2079.355469 644.269531 2058.355469 662.269531 2037.355469 C 644.269531 2025.355469 645.074219 1995.355469 668.269531 1995.355469 C 691.464844 1995.355469 710.269531 2014.160156 710.269531 2037.355469 Z M 710.269531 2037.355469 "/>
<path style=" stroke:none;fill-rule:nonzero;fill:rgb(80%,80%,80%);fill-opacity:1;" d="M 830.269531 2037.355469 C 830.269531 2060.550781 849.074219 2079.355469 872.269531 2079.355469 C 895.464844 2079.355469 896.269531 2058.355469 878.269531 2037.355469 C 896.269531 2025.355469 895.464844 1995.355469 872.269531 1995.355469 C 849.074219 1995.355469 830.269531 2014.160156 830.269531 2037.355469 Z M 830.269531 2037.355469 "/>
<path style=" stroke:none;fill-rule:nonzero;fill:rgb(80%,80%,80%);fill-opacity:1;" d="M 686.269531 2016.355469 L 854.269531 2016.355469 L 854.269531 2058.355469 L 686.269531 2058.355469 Z M 686.269531 2016.355469 "/>
<path style=" stroke:none;fill-rule:nonzero;fill:rgb(24.705882%,23.921569%,33.72549%);fill-opacity:1;" d="M 3124.582031 2087.355469 L 140.582031 2087.355469 C 138.371094 2087.355469 136.582031 2085.5625 136.582031 2083.355469 C 136.582031 2081.144531 138.371094 2079.355469 140.582031 2079.355469 L 3124.582031 2079.355469 C 3126.789062 2079.355469 3128.582031 2081.144531 3128.582031 2083.355469 C 3128.582031 2085.5625 3126.789062 2087.355469 3124.582031 2087.355469 Z M 3124.582031 2087.355469 "/>
<path style=" stroke:none;fill-rule:nonzero;fill:rgb(62.745098%,38.039216%,41.568627%);fill-opacity:1;" d="M 2477.085938 1234.71875 C 2477.085938 1267.414062 2450.578125 1293.917969 2417.882812 1293.917969 C 2385.191406 1293.917969 2358.683594 1267.414062 2358.683594 1234.71875 C 2358.683594 1202.023438 2385.191406 1175.519531 2417.882812 1175.519531 C 2450.578125 1175.519531 2477.085938 1202.023438 2477.085938 1234.71875 Z M 2477.085938 1234.71875 "/>
<path style=" stroke:none;fill-rule:nonzero;fill:rgb(62.745098%,38.039216%,41.568627%);fill-opacity:1;" d="M 2414.058594 1566.597656 C 2411.75 1559.402344 2412.621094 1551.5625 2416.449219 1545.050781 C 2420.28125 1538.535156 2426.707031 1533.96875 2434.117188 1532.488281 C 2435.277344 1532.261719 2436.453125 1532.117188 2437.636719 1532.054688 L 2499.992188 1431.972656 L 2443.03125 1377.820312 C 2437.109375 1372.1875 2434.664062 1363.8125 2436.628906 1355.882812 C 2438.589844 1347.949219 2444.660156 1341.679688 2452.523438 1339.460938 C 2460.386719 1337.242188 2468.839844 1339.414062 2474.65625 1345.152344 L 2553.304688 1422.703125 L 2553.460938 1422.894531 C 2558.457031 1430.496094 2557.875 1440.472656 2552.03125 1447.441406 L 2464.65625 1550.78125 C 2464.917969 1551.609375 2465.132812 1552.449219 2465.308594 1553.300781 C 2466.785156 1560.710938 2465.03125 1568.402344 2460.484375 1574.4375 C 2455.941406 1580.476562 2449.035156 1584.285156 2441.503906 1584.914062 C 2440.753906 1584.980469 2440.003906 1585.015625 2439.257812 1585.015625 C 2427.761719 1584.964844 2417.597656 1577.535156 2414.058594 1566.597656 Z M 2414.058594 1566.597656 "/>
<path style=" stroke:none;fill-rule:nonzero;fill:rgb(62.745098%,38.039216%,41.568627%);fill-opacity:1;" d="M 2320.382812 2058.628906 L 2290.832031 2058.628906 L 2276.777344 1944.648438 L 2320.386719 1944.652344 Z M 2320.382812 2058.628906 "/>
<path style=" stroke:none;fill-rule:nonzero;fill:rgb(18.431373%,18.039216%,25.490196%);fill-opacity:1;" d="M 2329.125 2088.480469 L 2231.433594 2088.476562 L 2231.433594 2086.066406 C 2231.433594 2064.917969 2248.574219 2047.773438 2269.722656 2047.773438 L 2329.125 2047.777344 Z M 2329.125 2088.480469 "/>
<path style=" stroke:none;fill-rule:nonzero;fill:rgb(62.745098%,38.039216%,41.568627%);fill-opacity:1;" d="M 2614.09375 2017.773438 L 2588.699219 2032.890625 L 2518.308594 1942.152344 L 2555.785156 1919.839844 Z M 2614.09375 2017.773438 "/>
<path style=" stroke:none;fill-rule:nonzero;fill:rgb(18.431373%,18.039216%,25.490196%);fill-opacity:1;" d="M 2552.933594 2088.925781 L 2551.699219 2086.855469 C 2540.882812 2068.683594 2546.839844 2045.183594 2565.011719 2034.363281 L 2616.050781 2003.976562 L 2636.875 2038.949219 Z M 2552.933594 2088.925781 "/>
<path style=" stroke:none;fill-rule:nonzero;fill:rgb(18.431373%,18.039216%,25.490196%);fill-opacity:1;" d="M 2273.046875 2008.433594 C 2253.253906 1775.34375 2241.476562 1558.804688 2313.839844 1470.46875 L 2314.398438 1469.785156 L 2436.183594 1518.5 L 2436.382812 1518.933594 C 2436.792969 1519.828125 2477.296875 1608.917969 2467.847656 1668.84375 L 2497.886719 1807.019531 L 2595.832031 1971.019531 C 2597.425781 1973.691406 2597.796875 1976.917969 2596.851562 1979.882812 C 2595.90625 1982.84375 2593.734375 1985.257812 2590.886719 1986.511719 L 2548.324219 2005.238281 C 2543.359375 2007.402344 2537.558594 2005.589844 2534.710938 2000.984375 L 2428.164062 1827.25 L 2367.984375 1693.992188 C 2367.3125 1692.503906 2365.726562 1691.652344 2364.117188 1691.910156 C 2362.503906 1692.171875 2361.265625 1693.476562 2361.09375 1695.097656 L 2327.734375 2008.671875 C 2327.15625 2014.191406 2322.5 2018.378906 2316.949219 2018.371094 L 2283.859375 2018.371094 C 2278.234375 2018.339844 2273.554688 2014.039062 2273.046875 2008.433594 Z M 2273.046875 2008.433594 "/>
<path style=" stroke:none;fill-rule:nonzero;fill:rgb(42.352941%,38.823529%,100%);fill-opacity:1;" d="M 2314.25 1472.316406 L 2313.671875 1472.039062 L 2313.578125 1471.402344 C 2309.03125 1439.5625 2314.414062 1404.183594 2329.585938 1366.253906 C 2345.035156 1327.882812 2386.257812 1306.613281 2426.484375 1316.253906 C 2449.148438 1321.839844 2468.4375 1336.671875 2479.65625 1357.144531 C 2490.730469 1377.40625 2492.804688 1401.382812 2485.375 1423.246094 C 2466.25 1479.164062 2441.445312 1531.484375 2441.195312 1532.007812 L 2440.675781 1533.101562 Z M 2314.25 1472.316406 "/>
<path style=" stroke:none;fill-rule:nonzero;fill:rgb(62.745098%,38.039216%,41.568627%);fill-opacity:1;" d="M 2226.621094 1604.367188 C 2224.890625 1591.078125 2233.144531 1578.519531 2246.035156 1574.839844 L 2359.914062 1356.207031 C 2363.984375 1349.523438 2371.324219 1345.535156 2379.144531 1345.75 C 2386.96875 1345.96875 2394.074219 1350.355469 2397.773438 1357.25 C 2401.46875 1364.144531 2401.191406 1372.492188 2397.042969 1379.128906 L 2280.472656 1596.238281 C 2280.722656 1597.558594 2280.867188 1598.894531 2280.90625 1600.238281 C 2281.109375 1607.65625 2278.273438 1614.835938 2273.0625 1620.117188 C 2267.851562 1625.402344 2260.707031 1628.328125 2253.289062 1628.226562 C 2245.136719 1628.109375 2237.464844 1624.351562 2232.375 1617.984375 C 2229.226562 1614.070312 2227.234375 1609.355469 2226.621094 1604.367188 Z M 2226.621094 1604.367188 "/>
<path style=" stroke:none;fill-rule:nonzero;fill:rgb(18.431373%,18.039216%,25.490196%);fill-opacity:1;" d="M 2346.105469 1201.277344 L 2440.109375 1201.277344 L 2440.109375 1160.304688 C 2419.476562 1152.105469 2399.285156 1145.136719 2387.082031 1160.304688 C 2364.453125 1160.304688 2346.105469 1178.648438 2346.105469 1201.277344 Z M 2346.105469 1201.277344 "/>
<path style=" stroke:none;fill-rule:nonzero;fill:rgb(18.431373%,18.039216%,25.490196%);fill-opacity:1;" d="M 2445.3125 1153.070312 C 2501.507812 1153.070312 2517.238281 1223.511719 2517.238281 1263.25 C 2517.238281 1285.414062 2507.214844 1293.339844 2491.464844 1296.019531 L 2485.90625 1266.355469 L 2472.878906 1297.296875 C 2468.453125 1297.320312 2463.804688 1297.234375 2458.988281 1297.144531 L 2454.570312 1288.050781 L 2444.722656 1296.980469 C 2405.273438 1297.039062 2373.386719 1302.789062 2373.386719 1263.25 C 2373.386719 1223.511719 2387.183594 1153.070312 2445.3125 1153.070312 Z M 2445.3125 1153.070312 "/>
</g>
</svg>
