<?xml version="1.0" encoding="UTF-8"?>
<svg xmlns="http://www.w3.org/2000/svg" xmlns:xlink="http://www.w3.org/1999/xlink" width="3072px" height="2384px" viewBox="0 0 3072 2384" version="1.1">
<g id="surface1">
<path style=" stroke:none;fill-rule:nonzero;fill:rgb(42.352941%,38.823529%,100%);fill-opacity:1;" d="M 1865.757812 1484.121094 L 1860.753906 1542.945312 C 1859.519531 1557.246094 1846.945312 1567.847656 1832.644531 1566.648438 L 1342.359375 1524.9375 C 1328.058594 1523.707031 1317.457031 1511.128906 1318.65625 1496.828125 L 1323.660156 1438.003906 C 1324.894531 1423.703125 1337.46875 1413.097656 1351.773438 1414.300781 L 1842.054688 1456.007812 C 1856.355469 1457.242188 1866.957031 1469.816406 1865.757812 1484.121094 Z M 1865.757812 1484.121094 "/>
<path style=" stroke:none;fill-rule:nonzero;fill:rgb(42.352941%,38.823529%,100%);fill-opacity:1;" d="M 1963.476562 1771.058594 L 1909.171875 1794.226562 C 1895.988281 1799.851562 1882.414062 1797.765625 1878.921875 1789.574219 L 1758.984375 1508.460938 C 1755.492188 1500.273438 1763.375 1489.03125 1776.5625 1483.40625 L 1830.867188 1460.238281 C 1844.050781 1454.609375 1857.621094 1456.699219 1861.117188 1464.886719 L 1981.054688 1746 C 1984.546875 1754.191406 1976.664062 1765.433594 1963.476562 1771.058594 Z M 1963.476562 1771.058594 "/>
<path style=" stroke:none;fill-rule:nonzero;fill:rgb(90.196078%,90.196078%,90.196078%);fill-opacity:1;" d="M 1676 1679.984375 L 756.441406 1679.984375 C 778.128906 1523.015625 700.140625 1369.066406 560.753906 1293.699219 C 421.363281 1218.332031 249.839844 1237.367188 130.371094 1341.464844 C 10.898438 1445.5625 -31.4375 1612.863281 24.140625 1761.257812 C 79.71875 1909.648438 221.539062 2007.980469 380 2007.984375 C 426.488281 2008.03125 472.589844 1999.527344 516 1982.894531 L 516 2351.984375 C 516 2369.65625 530.328125 2383.984375 548 2383.984375 L 1676 2383.984375 C 1693.671875 2383.984375 1708 2369.65625 1708 2351.984375 L 1708 1711.984375 C 1708 1694.308594 1693.671875 1679.984375 1676 1679.984375 Z M 1676 1679.984375 "/>
<path style=" stroke:none;fill-rule:nonzero;fill:rgb(24.705882%,23.921569%,33.72549%);fill-opacity:1;" d="M 1744 2299.984375 L 616 2299.984375 C 596.128906 2299.960938 580.023438 2283.855469 580 2263.984375 L 580 1623.984375 C 580.023438 1604.109375 596.128906 1588.003906 616 1587.984375 L 1744 1587.984375 C 1763.871094 1588.003906 1779.976562 1604.109375 1780 1623.984375 L 1780 2263.984375 C 1779.976562 2283.855469 1763.871094 2299.960938 1744 2299.984375 Z M 616 1595.984375 C 600.542969 1596 588.019531 1608.527344 588 1623.984375 L 588 2263.984375 C 588.019531 2279.441406 600.542969 2291.964844 616 2291.984375 L 1744 2291.984375 C 1759.457031 2291.964844 1771.980469 2279.441406 1772 2263.984375 L 1772 1623.984375 C 1771.980469 1608.527344 1759.457031 1596 1744 1595.984375 Z M 616 1595.984375 "/>
<path style=" stroke:none;fill-rule:nonzero;fill:rgb(42.352941%,38.823529%,100%);fill-opacity:1;" d="M 1745.757812 1528.121094 L 1740.753906 1586.945312 C 1739.519531 1601.246094 1726.945312 1611.847656 1712.644531 1610.648438 L 1222.359375 1568.9375 C 1208.058594 1567.707031 1197.457031 1555.128906 1198.65625 1540.828125 L 1203.660156 1482.003906 C 1204.894531 1467.703125 1217.46875 1457.097656 1231.773438 1458.300781 L 1722.054688 1500.007812 C 1736.355469 1501.242188 1746.957031 1513.816406 1745.757812 1528.121094 Z M 1745.757812 1528.121094 "/>
<path style=" stroke:none;fill-rule:nonzero;fill:rgb(42.352941%,38.823529%,100%);fill-opacity:1;" d="M 1843.476562 1815.058594 L 1789.171875 1838.226562 C 1775.988281 1843.851562 1762.414062 1841.765625 1758.921875 1833.574219 L 1638.984375 1552.460938 C 1635.492188 1544.273438 1643.375 1533.03125 1656.5625 1527.40625 L 1710.867188 1504.238281 C 1724.050781 1498.609375 1737.621094 1500.699219 1741.117188 1508.886719 L 1861.054688 1790 C 1864.546875 1798.191406 1856.664062 1809.433594 1843.476562 1815.058594 Z M 1843.476562 1815.058594 "/>
<path style=" stroke:none;fill-rule:nonzero;fill:rgb(42.352941%,38.823529%,100%);fill-opacity:1;" d="M 2635.222656 82.132812 L 2736.851562 4.316406 L 2814.671875 105.945312 L 2713.042969 183.761719 Z M 2635.222656 82.132812 "/>
<path style=" stroke:none;fill-rule:nonzero;fill:rgb(100%,39.607843%,51.764706%);fill-opacity:1;" d="M 2250.164062 720.609375 C 2250.164062 769.210938 2210.765625 808.609375 2162.164062 808.609375 C 2113.5625 808.609375 2074.164062 769.210938 2074.164062 720.609375 C 2074.164062 672.007812 2113.5625 632.609375 2162.164062 632.609375 C 2210.765625 632.609375 2250.164062 672.007812 2250.164062 720.609375 Z M 2250.164062 720.609375 "/>
<path style=" stroke:none;fill-rule:nonzero;fill:rgb(24.705882%,23.921569%,33.72549%);fill-opacity:1;" d="M 2139.585938 783.238281 C 2108.695312 742.898438 2116.359375 685.152344 2156.703125 654.261719 C 2197.042969 623.371094 2254.789062 631.035156 2285.679688 671.378906 C 2316.566406 711.71875 2308.90625 769.464844 2268.5625 800.355469 C 2228.203125 831.183594 2170.507812 823.527344 2139.585938 783.238281 Z M 2279.328125 676.242188 C 2251.121094 639.40625 2198.398438 632.410156 2161.566406 660.613281 C 2124.730469 688.816406 2117.734375 741.542969 2145.9375 778.375 C 2174.140625 815.210938 2226.867188 822.207031 2263.699219 794.003906 C 2300.484375 765.769531 2307.476562 713.089844 2279.328125 676.242188 Z M 2279.328125 676.242188 "/>
<path style=" stroke:none;fill-rule:nonzero;fill:rgb(24.705882%,23.921569%,33.72549%);fill-opacity:1;" d="M 2743.511719 190.660156 L 2660.828125 82.679688 L 2768.8125 0 L 2851.492188 107.980469 Z M 2672.046875 84.167969 L 2745 179.445312 L 2840.277344 106.492188 L 2767.324219 11.214844 Z M 2672.046875 84.167969 "/>
<path style=" stroke:none;fill-rule:nonzero;fill:rgb(42.352941%,38.823529%,100%);fill-opacity:1;" d="M 2854.351562 795.984375 L 2955.980469 718.167969 L 3033.796875 819.796875 L 2932.167969 897.613281 Z M 2854.351562 795.984375 "/>
<path style=" stroke:none;fill-rule:nonzero;fill:rgb(24.705882%,23.921569%,33.72549%);fill-opacity:1;" d="M 2962.636719 904.511719 L 2879.957031 796.53125 L 2987.9375 713.851562 L 3070.617188 821.832031 Z M 2891.171875 798.019531 L 2964.125 893.296875 L 3059.402344 820.34375 L 2986.449219 725.066406 Z M 2891.171875 798.019531 "/>
<path style=" stroke:none;fill-rule:nonzero;fill:rgb(24.705882%,23.921569%,33.72549%);fill-opacity:1;" d="M 4 2291.984375 L 2500 2291.984375 L 2500 2299.984375 L 4 2299.984375 Z M 4 2291.984375 "/>
<path style=" stroke:none;fill-rule:nonzero;fill:rgb(24.705882%,23.921569%,33.72549%);fill-opacity:1;" d="M 432 1907.984375 C 219.921875 1907.984375 48 1736.058594 48 1523.984375 C 48 1311.90625 219.921875 1139.984375 432 1139.984375 C 644.078125 1139.984375 816 1311.90625 816 1523.984375 C 815.761719 1735.960938 643.976562 1907.742188 432 1907.984375 Z M 432 1147.984375 C 224.339844 1147.984375 56 1316.324219 56 1523.984375 C 56 1731.640625 224.339844 1899.984375 432 1899.984375 C 639.660156 1899.984375 808 1731.640625 808 1523.984375 C 807.765625 1316.421875 639.5625 1148.21875 432 1147.984375 Z M 432 1147.984375 "/>
<path style=" stroke:none;fill-rule:nonzero;fill:rgb(42.352941%,38.823529%,100%);fill-opacity:1;" d="M 1479.761719 740.027344 C 1479.761719 858.257812 1383.917969 954.101562 1265.6875 954.101562 C 1147.453125 954.101562 1051.609375 858.257812 1051.609375 740.027344 C 1051.609375 621.792969 1147.453125 525.949219 1265.6875 525.949219 C 1383.917969 525.949219 1479.761719 621.792969 1479.761719 740.027344 Z M 1479.761719 740.027344 "/>
<path style=" stroke:none;fill-rule:nonzero;fill:rgb(18.431373%,18.039216%,25.490196%);fill-opacity:1;" d="M 1297.1875 819.371094 L 1296.964844 811.371094 C 1311.847656 810.957031 1324.96875 810.023438 1334.828125 802.820312 C 1340.484375 798.453125 1343.960938 791.839844 1344.355469 784.707031 C 1344.703125 780.339844 1343 776.058594 1339.742188 773.128906 C 1333.199219 767.601562 1322.667969 769.390625 1314.992188 772.910156 L 1308.371094 775.945312 L 1321.066406 683.183594 L 1328.992188 684.269531 L 1318.195312 763.175781 C 1328.625 760.109375 1338.289062 761.429688 1344.90625 767.019531 C 1350.058594 771.515625 1352.8125 778.164062 1352.347656 784.988281 C 1351.875 794.578125 1347.191406 803.46875 1339.546875 809.28125 C 1326.878906 818.539062 1310.417969 819 1297.1875 819.371094 Z M 1297.1875 819.371094 "/>
<path style=" stroke:none;fill-rule:nonzero;fill:rgb(18.431373%,18.039216%,25.490196%);fill-opacity:1;" d="M 1368.1875 691.074219 L 1411.273438 691.074219 L 1411.273438 699.074219 L 1368.1875 699.074219 Z M 1368.1875 691.074219 "/>
<path style=" stroke:none;fill-rule:nonzero;fill:rgb(18.431373%,18.039216%,25.490196%);fill-opacity:1;" d="M 1232.1875 691.074219 L 1275.273438 691.074219 L 1275.273438 699.074219 L 1232.1875 699.074219 Z M 1232.1875 691.074219 "/>
<path style=" stroke:none;fill-rule:nonzero;fill:rgb(18.431373%,18.039216%,25.490196%);fill-opacity:1;" d="M 1572 1597.984375 L 1068 1597.984375 C 1058.0625 1597.972656 1050.011719 1589.917969 1050 1579.984375 L 1050 1175.101562 C 1050.117188 1072.910156 1132.925781 990.097656 1235.117188 989.984375 L 1400 989.984375 C 1409.820312 989.996094 1417.824219 997.863281 1417.996094 1007.683594 L 1590 1579.691406 L 1590 1579.984375 C 1589.988281 1589.921875 1581.9375 1597.972656 1572 1597.984375 Z M 1572 1597.984375 "/>
<path style=" stroke:none;fill-rule:nonzero;fill:rgb(42.352941%,38.823529%,100%);fill-opacity:1;" d="M 1237.210938 1153.800781 L 1296.246094 1154.265625 C 1310.597656 1154.394531 1322.136719 1166.117188 1322.039062 1180.46875 L 1318.175781 1672.507812 C 1318.042969 1686.859375 1306.324219 1698.398438 1291.96875 1698.304688 L 1232.933594 1697.839844 C 1218.582031 1697.710938 1207.042969 1685.988281 1207.140625 1671.636719 L 1211.007812 1179.597656 C 1211.136719 1165.246094 1222.859375 1153.707031 1237.210938 1153.800781 Z M 1237.210938 1153.800781 "/>
<path style=" stroke:none;fill-rule:nonzero;fill:rgb(18.431373%,18.039216%,25.490196%);fill-opacity:1;" d="M 1178 1133.984375 C 1178 1085.382812 1217.398438 1045.984375 1266 1045.984375 C 1314.601562 1045.984375 1354 1085.382812 1354 1133.984375 L 1354 1329.984375 L 1178 1329.984375 Z M 1178 1133.984375 "/>
<path style=" stroke:none;fill-rule:nonzero;fill:rgb(18.431373%,18.039216%,25.490196%);fill-opacity:1;" d="M 1202.449219 639.199219 C 1222.722656 618.335938 1252.179688 614.75 1279.898438 617.019531 C 1309.578125 619.449219 1337.703125 629.308594 1366.820312 634.792969 C 1395.539062 640.203125 1426.675781 642.628906 1454.128906 630.644531 C 1479.910156 619.066406 1497.714844 594.796875 1501.019531 566.730469 C 1504.554688 537.75 1497.046875 508.507812 1479.992188 484.816406 C 1461.191406 458.25 1434.484375 438.792969 1406.71875 422.457031 C 1346.871094 387.25 1280.140625 356.441406 1210.117188 350.746094 C 1146.902344 345.605469 1079.867188 363.078125 1035.394531 410.289062 C 993.710938 454.546875 975.964844 516.3125 972.273438 575.796875 C 967.5625 651.710938 985.28125 726.683594 991.691406 801.957031 C 996.679688 860.53125 994.8125 930.847656 947.242188 972.914062 C 905.167969 1010.121094 841.097656 1009.675781 791.492188 989.351562 C 732.527344 965.191406 691.152344 910.960938 659.859375 857.660156 C 651.894531 844.089844 644.40625 830.246094 637.144531 816.292969 C 633.578125 809.4375 623.21875 815.5 626.78125 822.347656 C 656.066406 878.628906 690.132812 934.84375 741.359375 973.84375 C 786.148438 1007.945312 845.914062 1024.371094 901.273438 1009.957031 C 928.117188 1003.257812 952.09375 988.105469 969.667969 966.738281 C 988.640625 943.097656 998.597656 914.007812 1002.753906 884.25 C 1007.199219 852.398438 1005.648438 820.300781 1002.429688 788.410156 C 998.550781 750.023438 992.371094 711.914062 988.136719 673.566406 C 980.925781 608.257812 979.933594 540.476562 1005.738281 478.773438 C 1016.863281 451.253906 1034.148438 426.652344 1056.261719 406.855469 C 1080.46875 386.445312 1109.511719 372.597656 1140.605469 366.636719 C 1208.441406 352.558594 1277.402344 371.617188 1338.8125 400.339844 C 1369.804688 414.1875 1399.472656 430.832031 1427.4375 450.070312 C 1452.230469 467.8125 1475.316406 491.050781 1484.867188 520.683594 C 1493.09375 546.21875 1492.410156 576.449219 1476.003906 598.714844 C 1458.46875 622.511719 1428.078125 628.453125 1400.21875 627.019531 C 1342.992188 624.078125 1285.320312 590.820312 1227.738281 609.800781 C 1214.953125 613.933594 1203.363281 621.109375 1193.960938 630.710938 C 1188.578125 636.253906 1197.054688 644.75 1202.449219 639.199219 Z M 1202.449219 639.199219 "/>
</g>
</svg>
